<?xml version="1.0" encoding="UTF-8" standalone="no"?>
<svg
   xmlns:dc="http://purl.org/dc/elements/1.1/"
   xmlns:cc="http://creativecommons.org/ns#"
   xmlns:rdf="http://www.w3.org/1999/02/22-rdf-syntax-ns#"
   xmlns:svg="http://www.w3.org/2000/svg"
   xmlns="http://www.w3.org/2000/svg"
   version="1.1"
   id="svg5333"
   viewBox="0 0 200.1063 199.98403"
   height="56.439938mm"
   width="56.474445mm">
  <defs
     id="defs5335" />
  <metadata
     id="metadata5338">
    <rdf:RDF>
      <cc:Work
         rdf:about="">
        <dc:format>image/svg+xml</dc:format>
        <dc:type
           rdf:resource="http://purl.org/dc/dcmitype/StillImage" />
        <dc:title></dc:title>
      </cc:Work>
    </rdf:RDF>
  </metadata>
  <g
     transform="translate(-110.26348,-319.24232)"
     id="layer1">
    <g
       transform="matrix(0.80069551,0,0,0.57183927,-118.66942,6.0391805)"
       id="g4710-0-3">
      <rect
         style="opacity:1;fill:#ff7f2a;fill-opacity:1;stroke:#000000;stroke-width:3.11178803;stroke-miterlimit:4;stroke-dasharray:none;stroke-opacity:1"
         id="rect4557-5-5-4-0"
         width="82.109978"
         height="208.92613"
         x="437.34424"
         y="735.57251"
         transform="matrix(0.99279352,-0.11983748,0.00787335,0.999969,0,0)" />
      <path
         style="fill:#d45500;fill-opacity:1;fill-rule:evenodd;stroke:#000000;stroke-width:3.71928549;stroke-linecap:butt;stroke-linejoin:miter;stroke-miterlimit:4;stroke-dasharray:none;stroke-opacity:1"
         d="m 439.09905,681.29053 -29.21898,-47.80546 1.55458,197.44208 30.62971,60.46825 z"
         id="path4559-9-6-5-0" />
      <path
         style="fill:#ff7f2a;fill-opacity:1;fill-rule:evenodd;stroke:#000000;stroke-width:3.71928549;stroke-linecap:butt;stroke-linejoin:miter;stroke-miterlimit:4;stroke-dasharray:none;stroke-opacity:1"
         d="m 423.08765,562.59212 20.26377,159.25103 90.3547,-13.4731 -24.84799,-158.69766 -87.14081,5.38529 -22.68775,115.66979 9.82337,-1.18573 -0.38359,-48.71949"
         id="path4563-5-2-9-8" />
      <path
         style="opacity:1;fill:#d45500;fill-opacity:1;stroke:#000000;stroke-width:4;stroke-miterlimit:4;stroke-dasharray:none;stroke-opacity:1"
         id="path4567-9-1-0-9"
         d="M 85.054123,192.41753 29.617896,188.17108 61.013548,142.28512 Z"
         transform="matrix(0.62679294,0.52299104,0.00858843,2.3401567,383.40575,199.70301)" />
      <rect
         style="opacity:1;fill:#ff7f2a;fill-opacity:1;stroke:#000000;stroke-width:2.41829324;stroke-miterlimit:4;stroke-dasharray:none;stroke-opacity:1"
         id="rect4557-5-1-0-8"
         width="99.941986"
         height="103.66648"
         x="323.14313"
         y="806.94873"
         transform="matrix(0.99880638,-0.04884473,0.01943071,0.99981121,0,0)" />
      <path
         style="fill:#d45500;fill-opacity:1;fill-rule:evenodd;stroke:#000000;stroke-width:2.89891434;stroke-linecap:butt;stroke-linejoin:miter;stroke-miterlimit:4;stroke-dasharray:none;stroke-opacity:1"
         d="m 337.35344,790.09515 -35.77993,-23.71672 1.90366,97.9528 37.50741,29.99883 z"
         id="path4559-9-0-3-4" />
      <path
         style="fill:#ff7f2a;fill-opacity:1;fill-rule:evenodd;stroke:#000000;stroke-width:2.89891434;stroke-linecap:butt;stroke-linejoin:miter;stroke-miterlimit:4;stroke-dasharray:none;stroke-opacity:1"
         d="m 317.74679,731.20779 24.81386,79.00589 110.64336,-6.68413 -30.42748,-78.73136 -106.70779,2.6717 -27.78214,57.38484 12.02915,-0.58827 -0.46974,-24.17015"
         id="path4563-5-9-6-4" />
      <path
         style="opacity:1;fill:#d45500;fill-opacity:1;stroke:#000000;stroke-width:4;stroke-miterlimit:4;stroke-dasharray:none;stroke-opacity:1"
         id="path4567-9-3-7-9"
         d="M 85.054123,192.41753 29.617896,188.17108 61.013548,142.28512 Z"
         transform="matrix(0.76753566,0.25946056,0.01051691,1.1609728,269.15453,551.17525)" />
    </g>
  </g>
</svg>
